<?xml version="1.0" encoding="UTF-8"?>
<svg enable-background="new 0 0 1190 525" version="1.1" viewBox="0 0 1190 525" xml:space="preserve" xmlns="http://www.w3.org/2000/svg">
<style type="text/css">
	.st0{fill:#D4D6D7;}
</style>
		<path class="st0" d="m75.4 1.8h-45.6v97.4h20.7v-34.6h24.9c21 0 32.7-14.5 32.7-31.4 0-17.1-11.5-31.4-32.7-31.4zm-2.8 44.5h-22.1v-26.3h22.1c8.2 0 14.3 5 14.3 13.1s-6.1 13.2-14.3 13.2z"/>
		<path class="st0" d="m196.4 0.2c-29.4 0-50.9 21-50.8 50.4 0 29.4 21.4 50.4 50.8 50.4 29.5 0 51-21 51-50.4s-21.5-50.4-51-50.4zm0 82.4c-18 0-29.5-13.9-29.5-32 0-18.3 11.5-32 29.5-32 17.9 0 29.6 13.7 29.7 32 0 18.1-11.7 32-29.7 32z"/>
		<polygon class="st0" points="372.3 72.2 353.9 1.8 337.7 1.8 319.1 72.2 302 1.8 278.8 1.8 306.6 99.2 328.7 99.2 345.7 32.3 362.8 99.3 384.9 99.3 412.7 1.8 389.3 1.8"/>
		<polygon class="st0" points="451.6 99.3 520.6 99.3 520.6 81 472.4 81 472.4 58.9 519.6 58.9 519.6 40.6 472.4 40.6 472.4 20 520.6 20 520.6 1.8 451.6 1.8"/>
		<path class="st0" d="m644.4 33.2c0-18.1-12.4-31.4-32.7-31.4h-45.6v97.4h20.7v-34.6h15.2l19.1 34.6h23.9l-21.9-37.1c10.5-2.5 21.3-11.7 21.3-28.9zm-35.8 13.1h-21.8v-26.3h21.8c8.3 0 14.6 4.9 14.6 13.1s-6.3 13.2-14.6 13.2z"/>
		<polygon class="st0" points="689.1 1.8 689.1 99.3 758.1 99.3 758.1 81 709.9 81 709.9 58.9 757.1 58.9 757.1 40.6 710 40.6 710 20 758.2 20 758.2 1.8 689.2 1.8"/>
		<path class="st0" d="m842 1.8h-38.4v97.5h38.4c30.5 0 51.7-19.3 51.7-48.7s-21.2-48.8-51.7-48.8zm0 79.2h-17.7v-60.9h17.7c20 0 30.5 13.3 30.5 30.5 0 16.5-11.2 30.4-30.5 30.4z"/>
		<path class="st0" d="m1033.9 49.5c9.2-1.9 16.8-10.1 16.8-22.4 0-13-9.5-24.8-28.1-24.8h-51.2v97.5h52.9c18.5 0 28.3-11.7 28.3-26.3 0-12.3-8.3-22.4-18.7-24zm-41.8-29.3h26c7 0 11.4 4.6 11.4 10.7s-4.4 10.5-11.4 10.5h-26v-21.2zm26.7 61.6v-0.1h-26.7v-22.6h26.7c8.2 0 12.6 5.3 12.6 11.4 0 7.1-4.7 11.3-12.6 11.3z"/>
		<polygon class="st0" points="1154.6 2.3 1130.6 41.5 1106.3 2.3 1082.6 2.3 1120.2 59.9 1120.3 59.9 1120.3 99.8 1141 99.8 1141 59.9 1178.3 2.3"/>
		<path class="st0" d="m189.7 182.5c0-3.8-3.1-6.9-6.9-6.9h-27.6c-3.8 0-6.9 3.1-6.9 6.9v91.7c-15-9.8-32.6-15.1-50.7-15.1-51.1 0-92.5 41.4-92.5 92.5s41.4 92.5 92.5 92.5c18.1 0 35.7-5.4 50.7-15.2v8.2c0 3.8 3.1 6.9 6.9 6.9h27.6c3.8 0 6.9-3.1 6.9-6.9v-77.3c0.5-5.5 0.5-10.9 0-16.4v-160.9zm-56.7 208.5c-9.5 10.5-22 16.3-35.4 16.3s-25.9-5.8-35.4-16.3c-19.5-21.6-19.5-56.9 0-78.6 9.8-10.9 22.6-16.3 35.4-16.3 12.8-0.1 25.6 5.3 35.4 16.3 19.5 21.6 19.5 56.9 0 78.6z"/>
		<path class="st0" d="m309.4 259.1c-51.1 0-92.5 41.4-92.5 92.5s41.4 92.5 92.5 92.5c24.5 0 48-9.8 65.4-27.1 36.1-36.1 36.1-94.7 0-130.8-17.4-17.4-40.9-27.1-65.4-27.1zm35.4 131.9c-9.5 10.5-22 16.3-35.4 16.3s-26-5.8-35.4-16.3c-19.5-21.6-19.5-56.9 0-78.6 9.8-10.9 22.6-16.3 35.4-16.3 12.8-0.1 25.6 5.3 35.4 16.3 19.5 21.6 19.5 56.9 0 78.6z"/>
		<path class="st0" d="m510.3 259.1c-51.1 0-92.5 41.4-92.5 92.5s41.4 92.5 92.5 92.5c24.6 0 48.1-9.8 65.4-27.1 36.1-36.1 36.1-94.7 0-130.8-17.4-17.4-40.9-27.1-65.4-27.1zm35.4 131.9c-9.5 10.5-22 16.3-35.4 16.3s-25.9-5.8-35.4-16.3c-19.5-21.6-19.5-56.9 0-78.6 9.8-10.9 22.6-16.3 35.4-16.3 12.8-0.1 25.7 5.3 35.4 16.3 19.5 21.6 19.5 56.9 0 78.6z"/>
		<path class="st0" d="m930.7 259.1c-51.1 0-92.5 41.4-92.5 92.5s41.4 92.5 92.5 92.5c24.6 0 48.1-9.8 65.4-27.1 36.1-36.1 36.1-94.7 0-130.8-17.4-17.4-40.9-27.1-65.4-27.1zm35.4 131.9c-9.5 10.5-22 16.3-35.4 16.3s-26-5.8-35.4-16.3c-19.5-21.6-19.5-56.9 0-78.6 9.8-10.9 22.6-16.3 35.4-16.3 12.8-0.1 25.6 5.3 35.4 16.3 19.5 21.6 19.5 56.9 0 78.6z"/>
		<path class="st0" d="m1091.4 175h-27.6c-3.8 0-6.9 3.1-6.9 6.9v254.6c0 3.8 3.1 6.9 6.9 6.9h27.6c3.8 0 6.9-3.1 6.9-6.9v-254.6c0-3.8-3.1-6.9-6.9-6.9z"/>
		<path class="st0" d="m1178.3 175h-27.6c-3.9 0-6.9 3.1-6.9 6.9v254.6c0 3.8 3.1 6.9 6.9 6.9h27.6c3.8 0 6.9-3.1 6.9-6.9v-254.6c0-3.8-3.1-6.9-6.9-6.9z"/>
		<path class="st0" d="m723.3 256.4c-18.1 0-35.7 5.4-50.7 15.2v-8.2c0-3.8-3.1-6.9-6.9-6.9h-27.6c-3.8 0-6.9 3-6.9 6.9v77.3c-0.5 5.5-0.5 10.9 0 16.4v160.9c0 3.8 3.1 6.9 6.9 6.9h27.6c3.8 0 6.9-3.1 6.9-6.9v-91.7c15 9.8 32.6 15.1 50.7 15.1 51.1 0 92.5-41.4 92.5-92.5s-41.4-92.5-92.5-92.5zm35.4 131.7c-9.8 10.9-22.6 16.3-35.4 16.3-12.8 0.1-25.6-5.3-35.4-16.3-19.5-21.6-19.5-56.9 0-78.6 9.5-10.5 22-16.3 35.4-16.3s26 5.8 35.4 16.3c19.5 21.6 19.5 56.9 0 78.6z"/>
</svg>
